<?xml version="1.0" standalone="no"?>
<!DOCTYPE svg PUBLIC "-//W3C//DTD SVG 20010904//EN"
 "http://www.w3.org/TR/2001/REC-SVG-20010904/DTD/svg10.dtd">
<svg version="1.0" xmlns="http://www.w3.org/2000/svg"
 width="200.000000pt" height="200.000000pt" viewBox="0 0 200.000000 200.000000"
 preserveAspectRatio="xMidYMid meet">
<metadata>
Created by potrace 1.11, written by Peter Selinger 2001-2013
</metadata>
<g transform="translate(0.000000,200.000000) scale(0.100000,-0.100000)"
fill="#000000" stroke="none">
<path d="M690 1723 c-68 -11 -112 -41 -125 -83 -13 -40 -9 -306 4 -338 23 -55
86 -77 213 -75 95 2 163 28 179 70 6 16 11 97 12 184 1 144 -1 158 -20 185
-14 19 -38 35 -65 44 -45 13 -155 21 -198 13z m120 -138 c15 -9 13 -212 -2
-222 -18 -11 -59 -12 -80 -1 -15 7 -18 24 -18 113 0 87 3 106 17 114 17 9 65
7 83 -4z"/>
<path d="M113 1713 c-9 -3 -13 -25 -13 -64 l0 -59 60 0 c55 0 60 -2 61 -22 0
-13 0 -79 0 -148 0 -69 2 -139 4 -156 l5 -31 68 2 c37 1 70 3 75 4 4 0 7 79 7
175 l0 175 55 0 c30 0 58 2 63 5 8 4 6 90 -2 112 -4 10 -354 16 -383 7z"/>
<path d="M1035 1712 c-3 -3 -5 -32 -5 -64 0 -64 -1 -63 87 -58 l33 1 2 -178 3
-178 65 -1 c36 -1 71 3 78 8 9 8 12 56 12 180 l0 169 23 -1 c12 -1 39 -2 60
-1 l37 1 0 60 c0 33 -3 61 -7 62 -21 4 -383 4 -388 0z"/>
<path d="M1502 1707 c-11 -15 -9 -453 2 -464 11 -11 107 -12 129 -1 13 7 17
22 17 68 l0 60 65 0 c132 0 169 40 168 179 -1 147 -24 164 -230 167 -99 2
-145 -1 -151 -9z m234 -142 c3 -14 3 -36 0 -50 -5 -21 -12 -25 -46 -25 -22 0
-40 5 -41 10 -1 6 -1 21 -1 35 0 54 1 55 42 55 34 0 41 -4 46 -25z"/>
<path d="M934 678 c-55 -95 -99 -178 -97 -184 3 -8 26 -7 79 4 41 8 77 12 81
8 3 -3 -6 -51 -20 -105 -28 -105 -32 -131 -19 -131 10 0 222 351 222 368 0 15
-16 15 -96 0 -35 -6 -66 -9 -69 -7 -2 3 4 43 15 90 11 46 22 94 25 107 14 60
-29 7 -121 -150z"/>
<path d="M200 632 c-1 -9 -3 -34 -6 -56 -4 -23 -2 -41 5 -45 18 -11 81 0 81
14 0 9 -9 12 -25 9 -14 -2 -25 0 -25 6 0 5 7 10 15 10 8 0 15 5 15 10 0 6 -7
10 -15 10 -9 0 -12 6 -9 15 4 8 10 12 15 9 11 -6 39 13 39 26 0 5 -20 8 -45 8
-35 0 -45 -3 -45 -16z"/>
<path d="M310 635 c-17 -20 -9 -48 18 -60 12 -5 22 -13 22 -17 0 -11 -8 -10
-30 2 -25 14 -39 -9 -16 -26 20 -14 65 -9 84 10 17 16 0 56 -23 56 -7 0 -16 4
-19 8 -3 5 16 8 42 7 l47 -1 -3 -41 c-2 -22 0 -43 5 -46 10 -6 35 7 34 17 -6
40 1 65 19 71 40 13 22 33 -30 33 -31 1 -50 -3 -50 -11 0 -8 -3 -8 -12 1 -17
17 -73 15 -88 -3z"/>
<path d="M1436 634 c-9 -8 -13 -20 -10 -26 4 -6 10 -6 17 1 6 6 17 11 24 11
22 0 -4 -39 -33 -50 -41 -16 -30 -38 21 -42 46 -3 65 5 65 28 0 8 -8 10 -22 6
l-22 -5 22 27 c17 22 19 32 11 47 -12 23 -52 25 -73 3z"/>
<path d="M1568 639 c-22 -12 -34 -74 -19 -93 22 -26 52 -26 77 -1 29 29 31 66
6 88 -21 19 -39 21 -64 6z m45 -38 c5 -20 -9 -51 -22 -51 -15 0 -21 31 -11 51
13 24 26 24 33 0z"/>
<path d="M1693 643 c-7 -2 -13 -14 -13 -25 0 -17 2 -18 15 -8 9 7 18 10 21 7
12 -11 -5 -37 -31 -47 -41 -16 -31 -38 20 -42 56 -4 65 -1 65 22 0 14 -5 17
-22 12 -22 -5 -22 -4 -7 14 27 32 30 53 9 64 -20 11 -37 12 -57 3z"/>
<path d="M1812 630 c-40 -37 -22 -100 28 -100 52 0 80 69 42 103 -25 22 -44
21 -70 -3z m51 -22 c6 -17 -10 -58 -22 -58 -15 0 -22 30 -11 51 12 22 26 25
33 7z"/>
<path d="M522 558 c-18 -18 -14 -28 8 -28 11 0 20 6 20 14 0 21 -15 27 -28 14z"/>
</g>
</svg>
